<?xml version="1.0" encoding="utf-8"?>
<!-- Generator: Adobe Illustrator 26.0.1, SVG Export Plug-In . SVG Version: 6.00 Build 0)  -->
<svg version="1.1" id="Laag_1" xmlns="http://www.w3.org/2000/svg" xmlns:xlink="http://www.w3.org/1999/xlink" x="0px" y="0px"
	 viewBox="0 0 512 512" style="enable-background:new 0 0 512 512;" xml:space="preserve">
<style type="text/css">
	.st0{fill:url(#SVGID_1_);}
	.st1{fill:#121D1F;}
	.st2{fill:#219FA5;}
	.st3{fill:#75C6C8;}
	.st4{fill:#ABDADD;}
	.st5{fill:url(#SVGID_00000047060669318422483520000018286409024296112543_);}
	.st6{opacity:0.16;fill:#1C5250;enable-background:new    ;}
</style>
<linearGradient id="SVGID_1_" gradientUnits="userSpaceOnUse" x1="428.9658" y1="120.1194" x2="84.1357" y2="456.1594" gradientTransform="matrix(1 0 0 -1 0 514)">
	<stop  offset="0.04" style="stop-color:#43B8B0"/>
	<stop  offset="0.46" style="stop-color:#53B582"/>
	<stop  offset="0.49" style="stop-color:#53B57E"/>
	<stop  offset="0.65" style="stop-color:#56B46D"/>
	<stop  offset="0.76" style="stop-color:#56B367"/>
	<stop  offset="0.82" style="stop-color:#58B46A"/>
	<stop  offset="0.89" style="stop-color:#62B776"/>
	<stop  offset="0.98" style="stop-color:#75BE87"/>
	<stop  offset="1" style="stop-color:#78BF8B"/>
</linearGradient>
<rect x="89.14" y="58.33" class="st0" width="344.43" height="344.43"/>
<rect x="137.81" y="107" class="st1" width="247.09" height="247.09"/>
<path class="st2" d="M137.83,44.38L137.83,44.38c-17.22,0-34.08,4.85-48.67,14v156.71c14.59,9.15,31.45,14,48.67,14l0,0
	c50.79,0,92.34-41.55,92.34-92.34l0,0C230.15,85.94,188.6,44.38,137.83,44.38z"/>
<circle class="st3" cx="137.81" cy="136.73" r="58.48"/>
<circle class="st4" cx="137.81" cy="136.73" r="25.61"/>
<linearGradient id="SVGID_00000160905749587658275410000004835431835609119673_" gradientUnits="userSpaceOnUse" x1="342.9359" y1="133.2375" x2="286.5659" y2="21.2275" gradientTransform="matrix(1 0 0 -1 0 514)">
	<stop  offset="0.04" style="stop-color:#056775"/>
	<stop  offset="0.46" style="stop-color:#219FA5"/>
	<stop  offset="0.64" style="stop-color:#36B2A4"/>
	<stop  offset="0.79" style="stop-color:#46B6A0"/>
</linearGradient>
<polygon style="fill:url(#SVGID_00000160905749587658275410000004835431835609119673_);" points="433.57,402.76 230.15,468.23 
	230.15,402.76 "/>
<path class="st3" d="M225.68,321.94l10.64-12.71c5.83,5.07,13.39,8.57,20.13,8.57c7.74,0,11.53-3.05,11.53-7.92
	c0-5.16-4.66-6.81-11.82-9.76l-10.66-4.54c-8.49-3.46-16.54-10.43-16.54-22.34c0-13.59,12.13-24.44,29.2-24.44
	c9.85,0.02,19.31,3.88,26.37,10.75l-9.36,11.68c-5.4-4.15-10.53-6.42-17-6.42c-6.47,0-10.46,2.66-10.46,7.35
	c0,5,5.36,6.85,12.52,9.7l10.44,4.23c10,4.05,16.26,10.71,16.26,22.3c0,13.61-11.35,25.41-30.88,25.41
	C244.81,333.77,233.97,329.54,225.68,321.94z"/>
<path class="st3" d="M294.89,250.31h18.53v33.55h0.46l24.43-33.5h20.37l-24.8,32.72l29.36,49.26h-20.33l-19.92-34.68l-9.57,12.66v22
	h-18.53V250.31z"/>
<polygon class="st6" points="230.15,402.76 433.57,402.76 409.94,410.36 230.15,423.59 "/>
</svg>
